<svg xmlns="http://www.w3.org/2000/svg" viewBox="0 0 143.4 97.87"><defs><style>.cls-1{font-size:16px;fill:#fff;font-family:OpenSans-Bold, Open Sans;font-weight:700;}.cls-2,.cls-3,.cls-4{fill:#88dd9b;fill-rule:evenodd;}.cls-2{opacity:0.3;}.cls-2,.cls-3{isolation:isolate;}.cls-3{opacity:0.6;}</style></defs><g id="Layer_2" data-name="Layer 2"><g id="Layer_1-2" data-name="Layer 1"><text class="cls-1" transform="translate(60.13 55.73)">Eli’s Balms</text><path class="cls-2" d="M4.87,83.05A49.71,49.71,0,0,1,19.1,59.62c12.49,1.24,23.54-4.38,29.66-8.46C43,55.71,34.23,64.49,31.54,76.76A49.62,49.62,0,0,1,4.87,83.05Z"/><path class="cls-3" d="M4.87,15s14.31-.93,26.68,6.29c2.68,12.27,11.44,21,17.21,25.6-6.12-4.09-17.16-9.71-29.66-8.45C8.4,28.89,4.87,15,4.87,15Z"/><path class="cls-4" d="M0,49c14.73-12.19,33.53-11.43,48.37,0C33.74,61.14,14.84,60.47,0,49Z"/><path class="cls-4" d="M35.69,97.87a37.63,37.63,0,0,1,15-46A37.59,37.59,0,0,1,35.69,97.87Z"/><path class="cls-4" d="M35.41,0a37.64,37.64,0,0,1,15,46A37.59,37.59,0,0,1,35.41,0Z"/></g></g></svg>