<svg xmlns="http://www.w3.org/2000/svg" viewBox="0 0 766.9 805.53"><defs><style>.cls-1{font-size:244.69px;fill:#827f16;font-family:DubielPlain;}.cls-2,.cls-3,.cls-4,.cls-5,.cls-6,.cls-7{fill:none;stroke:#827f16;stroke-linecap:round;stroke-linejoin:round;}.cls-2{stroke-width:5.44px;}.cls-3{stroke-width:5.52px;}.cls-4{stroke-width:5.29px;}.cls-5{stroke-width:2.72px;}.cls-6{stroke-width:4.23px;}.cls-7{stroke-width:3.26px;}</style></defs><g id="Layer_2" data-name="Layer 2"><g id="Letter_Font" data-name="Letter Font"><text class="cls-1" transform="translate(208.61 378.84)">E</text><text class="cls-1" transform="translate(424.6 603.35) scale(0.98 1)">B</text><path class="cls-2" d="M532.88,202,220.22,582.59"/><path class="cls-2" d="M247.41,607.06,557.34,229.15"/></g><g id="Bottom_Logo" data-name="Bottom Logo"><path class="cls-2" d="M225.66,653.28a253.69,253.69,0,0,0,38.06,27.18c8.37,4.89,37.14,21,78.84,29.91,8.58,1.83,38.7,7.83,78.85,5.44,67-4,115.12-28.57,127.78-35.35a298.81,298.81,0,0,0,89.72-73.4c32.58-39.83,45.79-77.6,48.93-87a264.52,264.52,0,0,0,13.6-81.57"/><path class="cls-2" d="M698.72,465.68c-6.09-.61-9.21-14.38-10.88-21.75-1.76-7.77-4.76-25.27,0-51.65,3.09-17.11,6.28-20.44,5.44-32.63-1-14.48-6.48-24-5.44-24.47,1.31-.56,10.3,14.19,16.32,32.63,2,6.08,3.13,11.3,5.43,21.75,3.25,14.75,4.89,22.34,5.44,32.62s.89,18.1-2.72,27.19C711.82,450.62,705.43,466.35,698.72,465.68Z"/><path class="cls-2" d="M690.56,511.9l29.91-32.62"/><path class="cls-2" d="M704.16,498.31c-4.31-3.38.05-16,2.72-21.75,2.15-4.68,5.53-9.67,19-21.75,12.9-11.56,23.94-21.45,27.18-19,2.75,2.05-1.38,12-5.43,21.75-4.17,10-7.14,17.18-13.6,24.46C724.81,492.44,709.21,502.27,704.16,498.31Z"/><path class="cls-2" d="M587.25,675c-1.69-7.65,12.92-17.32,21.75-21.75,14.22-7.15,25-6.5,48.94-8.16,24.17-1.67,36.26-2.51,48.94-5.44,36-8.32,54.75-27.42,57.09-24.47,2.55,3.23-18.76,27.32-46.22,46.22-15.39,10.6-34.6,23.51-62.53,27.19-18.56,2.45-32.08-.35-43.5-2.72C599.25,683.32,588.57,681,587.25,675Z"/><path class="cls-2" d="M636.19,664.15A314,314,0,0,1,587.25,675c-10.61,1.48-20.62,2.32-29.91,2.71"/><path class="cls-2" d="M252.84,645.12a169.9,169.9,0,0,0,32.63,24.47,176.4,176.4,0,0,0,29.91,13.59,190.35,190.35,0,0,0,29.9,8.16,176,176,0,0,0,27.19,2.72"/><path class="cls-2" d="M318.09,704.93A112.78,112.78,0,0,0,367,743"/><path class="cls-2" d="M337.13,726.68c6.42-9.5,27.58-5,38.06-2.72a115.07,115.07,0,0,1,46.22,21.75c24.73,19.41,35.94,43.87,40.78,57.1a215,215,0,0,1-76.13-16.32c-27.62-11.59-37.89-23.09-43.5-32.62C340.17,749.8,331.48,735,337.13,726.68Z"/><path class="cls-2" d="M380.63,715.81c9.39-2.23,15.1-5.61,27.18-10.88s24.65-11,32.63-16.31"/><path class="cls-2" d="M402.38,707.65c12.44-22.66,20.05-30.12,29.9-32.62,13.84-3.52,23,2.32,38.06-2.72,13.19-4.42,21.89-14.17,27.19-21.75"/><path class="cls-2" d="M497.53,650.56a47,47,0,0,1-2.72,19c-4.39,12-12.57,18.75-16.31,21.75-5.82,4.66-12.28,7.94-21.75,10.87-20.43,6.34-40.88,6.79-57.09,5.44"/><ellipse class="cls-2" cx="466.27" cy="718.53" rx="5.44" ry="9.52" transform="translate(-344.46 994.96) rotate(-75.85)"/><ellipse class="cls-2" cx="584.53" cy="687.26" rx="6.8" ry="13.59" transform="translate(-316.41 735.31) rotate(-52.67)"/><path class="cls-2" d="M503,718.53a71.18,71.18,0,0,1-32.63-8.16"/><path class="cls-2" d="M478.5,713.09c1.36-5.92,18.42-9,32.63-5.44,4.72,1.19,4.45,1.93,8.15,2.72,18.4,3.92,33.84-12.67,35.35-10.88,1.63,2-13.39,25.39-38.07,29.91-3.6.66-13.88,2.4-24.47-2.72C486.84,724.14,477.39,717.92,478.5,713.09Z"/><path class="cls-2" d="M633.47,582.59A104.8,104.8,0,0,0,628,593.46a106.07,106.07,0,0,0-8.15,32.63"/><path class="cls-2" d="M622.59,604.34c-7.14-2.27-10.27-19.7-5.43-32.63,2.62-7,5.36-6.72,8.15-13.59,6.9-17-4.08-32.91,0-35.34,3.25-1.94,13.31,6.33,19,16.31,10.94,19,3.28,39.37,2.72,40.78C642.1,592.42,630.09,606.72,622.59,604.34Z"/><ellipse class="cls-2" cx="606.28" cy="627.45" rx="5.44" ry="9.52"/><ellipse class="cls-2" cx="696" cy="526.85" rx="10.87" ry="6.8" transform="translate(-175.79 482.49) rotate(-34.21)"/></g><g id="Top_Logo" data-name="Top Logo"><path class="cls-2" d="M456.75,131.28c-.93,2.73.16,9.4-2.72,13.59-3.19,4.64-5.16,5.56-13.59,13.59l-13.6,13.6-8.15,8.15-5.44,5.44"/><path class="cls-2" d="M553.27,154.39a310.74,310.74,0,0,0-29.91-21.75,306.85,306.85,0,0,0-76.13-35.35c-57.16-17-105.16-11.15-127.78-8.15-14,1.86-34.39,4.52-59.81,13.59-35.09,12.52-58.63,29.56-72,39.42a315.45,315.45,0,0,0-57.09,54.38A273.82,273.82,0,0,0,100.59,240C95.1,250,71.8,294,68,356.93a290.66,290.66,0,0,0,0,35.35"/><path class="cls-2" d="M68,359.65A97.15,97.15,0,0,0,57.09,395c-2.23,21.52,3.68,37.86,10.88,57.1a245.15,245.15,0,0,0,32.62,59.81"/><path class="cls-2" d="M68,362.37A101.88,101.88,0,0,1,87,395c6.46,18.48,5,32.6,5.44,51.66a328.68,328.68,0,0,0,8.15,65.25"/><path class="cls-2" d="M70.69,318.87a134.74,134.74,0,0,0-32.63,46.22"/><path class="cls-2" d="M51.66,343.34c-10.88-2.72-20.44,2.8-27.19,10.87-9.64,11.54-13.32,23-16.31,32.63-2.38,7.66-5,16.07-5.44,29.9"/><path class="cls-2" d="M51.66,340.62a23.81,23.81,0,0,1,5.43,13.59c.3,6.23-2.26,10.74-5.43,16.32-.87,1.52-4.57,7.85-13.6,16.31-5.17,4.84-8.32,6.85-13.59,10.87a221.48,221.48,0,0,0-21.75,19"/><path class="cls-2" d="M214.78,163.9a232.87,232.87,0,0,1,21.75-21.75c4.82-4.22,3.74-2.92,24.47-19,14.12-11,20.93-16.48,32.63-24.47,3.44-2.35,6.29-4.23,8.15-5.44"/><path class="cls-3" d="M252.84,128.56a164.09,164.09,0,0,0-66.21,47.71A165.75,165.75,0,0,0,155,234.59"/><path class="cls-4" d="M252.77,128.56a54.13,54.13,0,0,1-2.51,19.53c-3.8,11.62-10.77,18.54-17.55,25.11-3.25,3.15-6.35,5.73-22.57,16.74-17.2,11.68-19.19,12.5-25.08,16.75A173.06,173.06,0,0,0,155,234.59"/><path class="cls-3" d="M364.31,104.09a303.6,303.6,0,0,1,46.22,2.72c14.43,2,34.06,4.73,57.1,13.59a212.19,212.19,0,0,1,59.81,35.34"/><path class="cls-3" d="M435,93.21C429.8,88,418.05,77,410.53,71.46a169,169,0,0,0-27.19-16.31"/><path class="cls-3" d="M271.88,3.49a152.91,152.91,0,0,1,73.4,10.88c12.28,5,28.35,11.61,43.5,27.19a104.41,104.41,0,0,1,19,27.18"/><path class="cls-3" d="M271.88,3.49a104.28,104.28,0,0,1,21.75,13.6c7.64,6.23,11.37,11.13,16.31,16.31a151.81,151.81,0,0,0,32.62,24.47c8.83,5,30.55,15.28,65.25,13.59"/><path class="cls-3" d="M122.34,204.68c-8.15,0-19.37,6.08-27.18,10.88A140.22,140.22,0,0,0,68,237.31"/><path class="cls-3" d="M89.72,218.28a112,112,0,0,0-21.75,0c-17.14,2.25-28.66,11.06-35.34,16.31A92.05,92.05,0,0,0,5.44,269.93"/><path class="cls-3" d="M89.72,221a28,28,0,0,1,0,16.32c-1.48,4.48-5.71,12.79-27.19,21.75C51,263.88,31.67,270,5.44,269.93"/><path class="cls-3" d="M206.63,128.56c-7.42,2.39-13.89,4.15-19,5.43-11.11,2.77-19.83,4.23-27.18,5.44s-14,2.11-19,2.72"/><path class="cls-3" d="M171.28,136.71c-4.52-4.24-9-9.91-19-13.59-9-3.31-23-6-54.37,2.72a262.87,262.87,0,0,0-68,29.9"/><path class="cls-3" d="M174,136.71A153.64,153.64,0,0,1,152.25,153c-7.95,4.92-13.8,8.55-21.75,10.87-9.17,2.68-18,1.82-35.34,0-15.55-1.63-20.71-3.22-38.07-5.44-11.66-1.49-21.17-2.28-27.18-2.72"/><ellipse class="cls-5" cx="437.72" cy="80.98" rx="6.8" ry="10.87" transform="matrix(0.87, -0.5, 0.5, 0.87, 18.15, 229.71)"/><ellipse class="cls-6" cx="266.03" cy="142.52" rx="11.14" ry="16.09" transform="translate(-17.85 40.08) rotate(-8.34)"/><ellipse class="cls-7" cx="175.32" cy="125.45" rx="8.58" ry="12.38" transform="translate(-40.17 119.24) rotate(-33.94)"/><path class="cls-2" d="M95.16,250.9q-1.23,9.86-2.14,20.24a536.21,536.21,0,0,0-1.94,54.53"/><path class="cls-2" d="M91.08,290.32C81.85,293,80.72,313.54,80.2,323a103.8,103.8,0,0,0,8.16,46.22c11,25,29.74,40.91,29.91,40.78a38.69,38.69,0,0,1-8.16-10.88c-6.16-12.58-1.47-23,2.72-48.93,5.15-31.9,1.87-39.86,0-43.5C108.11,297.45,98.18,288.29,91.08,290.32Z"/><path class="cls-2" d="M494.81,120.4a126.79,126.79,0,0,0-27.18,5.44c-6.62,2.1-14.92,4.8-24.47,10.87a88.66,88.66,0,0,0-19,16.32"/><path class="cls-2" d="M456.75,128.56a23.53,23.53,0,0,0-10.87-5.44,24.6,24.6,0,0,0-16.32,2.72c-10.66,5.63-14.15,17.26-16.31,24.47a64,64,0,0,0,0,35.34"/></g></g></svg>