<!-- <svg xmlns="http://www.w3.org/2000/svg" viewBox="0 0 143.4 97.87"><defs><style>.cls-1{font-size:16px;fill:#fff;font-family:OpenSans-Bold, Open Sans;font-weight:700;}.cls-2,.cls-3,.cls-4{fill:#88dd9b;fill-rule:evenodd;}.cls-2{opacity:0.3;}.cls-2,.cls-3{isolation:isolate;}.cls-3{opacity:0.6;}</style></defs><g id="Layer_2" data-name="Layer 2"><g id="Layer_1-2" data-name="Layer 1"><text class="cls-1" transform="translate(60.13 55.73)">Eli’s Balms</text><path class="cls-2" d="M4.87,83.05A49.71,49.71,0,0,1,19.1,59.62c12.49,1.24,23.54-4.38,29.66-8.46C43,55.71,34.23,64.49,31.54,76.76A49.62,49.62,0,0,1,4.87,83.05Z"/><path class="cls-3" d="M4.87,15s14.31-.93,26.68,6.29c2.68,12.27,11.44,21,17.21,25.6-6.12-4.09-17.16-9.71-29.66-8.45C8.4,28.89,4.87,15,4.87,15Z"/><path class="cls-4" d="M0,49c14.73-12.19,33.53-11.43,48.37,0C33.74,61.14,14.84,60.47,0,49Z"/><path class="cls-4" d="M35.69,97.87a37.63,37.63,0,0,1,15-46A37.59,37.59,0,0,1,35.69,97.87Z"/><path class="cls-4" d="M35.41,0a37.64,37.64,0,0,1,15,46A37.59,37.59,0,0,1,35.41,0Z"/></g></g></svg> -->


<svg xmlns="http://www.w3.org/2000/svg" viewBox="0 0 957 957"><defs><style>.cls-1{fill:#827f16;}.cls-2{font-size:244.69px;fill:#fff;font-family:DubielPlain;}.cls-3,.cls-4,.cls-5,.cls-6,.cls-7,.cls-8{fill:none;stroke:#fcfcfc;stroke-linecap:round;stroke-linejoin:round;}.cls-3{stroke-width:5.44px;}.cls-4{stroke-width:5.52px;}.cls-5{stroke-width:5.29px;}.cls-6{stroke-width:2.72px;}.cls-7{stroke-width:4.23px;}.cls-8{stroke-width:3.26px;}</style></defs><g id="Layer_2" data-name="Layer 2"><g id="Layer_3" data-name="Layer 3"><circle class="cls-1" cx="478.5" cy="478.5" r="478.5"/></g><g id="Letter_Font" data-name="Letter Font"><text class="cls-2" transform="translate(306.67 455.43)">E</text><text class="cls-2" transform="translate(522.66 679.93) scale(0.98 1)">B</text><path class="cls-3" d="M630.93,278.55Q474.62,468.87,318.28,659.18"/><path class="cls-3" d="M345.47,683.64,655.4,305.74"/></g><g id="Bottom_Logo" data-name="Bottom Logo"><path class="cls-3" d="M323.72,729.86a252.93,252.93,0,0,0,38.06,27.19c8.37,4.89,37.13,21,78.84,29.91,8.58,1.83,38.7,7.82,78.85,5.43,67-4,115.12-28.56,127.78-35.34A298.64,298.64,0,0,0,737,683.64c32.58-39.82,45.79-77.59,48.93-87a264.73,264.73,0,0,0,13.6-81.56"/><path class="cls-3" d="M796.78,542.27c-6.09-.61-9.21-14.39-10.88-21.75-1.76-7.77-4.76-25.27,0-51.66,3.09-17.1,6.28-20.43,5.44-32.62-1-14.48-6.48-24-5.44-24.47,1.31-.56,10.29,14.19,16.32,32.62,2,6.09,3.13,11.31,5.43,21.75,3.25,14.76,4.89,22.34,5.44,32.63s.89,18.1-2.72,27.19C809.87,527.21,803.49,542.94,796.78,542.27Z"/><path class="cls-3" d="M788.62,588.49l29.91-32.63"/><path class="cls-3" d="M802.22,574.89c-4.32-3.38,0-16,2.71-21.75,2.16-4.67,5.54-9.66,19-21.75,12.89-11.55,23.94-21.45,27.18-19,2.75,2-1.38,12-5.43,21.75-4.17,10-7.14,17.18-13.6,24.47C822.87,569,807.27,578.86,802.22,574.89Z"/><path class="cls-3" d="M685.31,751.61c-1.69-7.65,12.92-17.31,21.75-21.75,14.22-7.14,25-6.5,48.94-8.15,24.17-1.67,36.26-2.51,48.93-5.44,36-8.32,54.76-27.42,57.1-24.47,2.55,3.22-18.76,27.31-46.22,46.22-15.4,10.6-34.6,23.5-62.53,27.19-18.56,2.44-32.08-.36-43.5-2.72C697.31,759.9,686.62,757.58,685.31,751.61Z"/><path class="cls-3" d="M734.25,740.74a313.2,313.2,0,0,1-48.94,10.87c-10.61,1.48-20.62,2.32-29.91,2.72"/><path class="cls-3" d="M350.9,721.71a170.32,170.32,0,0,0,32.63,24.47,178.41,178.41,0,0,0,29.9,13.59,190.64,190.64,0,0,0,29.91,8.16,174.57,174.57,0,0,0,27.19,2.71"/><path class="cls-3" d="M416.15,781.52a112.78,112.78,0,0,0,48.94,38.06"/><path class="cls-3" d="M435.18,803.27c6.43-9.5,27.59-5,38.07-2.72a115.07,115.07,0,0,1,46.22,21.75c24.73,19.4,35.93,43.87,40.78,57.09a214.8,214.8,0,0,1-76.13-16.31c-27.62-11.59-37.89-23.09-43.5-32.62C438.23,826.39,429.54,811.61,435.18,803.27Z"/><path class="cls-3" d="M478.68,792.39c9.4-2.22,15.11-5.6,27.19-10.87s24.65-11,32.63-16.31"/><path class="cls-3" d="M500.43,784.24c12.45-22.66,20.06-30.12,29.91-32.63,13.84-3.51,23,2.33,38.06-2.72,13.19-4.41,21.89-14.16,27.19-21.75"/><path class="cls-3" d="M595.59,727.14a47,47,0,0,1-2.72,19c-4.39,12-12.57,18.75-16.31,21.75-5.82,4.66-12.28,7.93-21.75,10.87-20.43,6.34-40.88,6.78-57.09,5.44"/><ellipse class="cls-3" cx="564.32" cy="795.11" rx="5.44" ry="9.52" transform="translate(-344.64 1147.9) rotate(-75.85)"/><ellipse class="cls-3" cx="682.59" cy="763.85" rx="6.8" ry="13.59" transform="translate(-338.71 843.43) rotate(-52.67)"/><path class="cls-3" d="M601,795.11A71.36,71.36,0,0,1,568.4,787"/><path class="cls-3" d="M576.56,789.68c1.36-5.92,18.42-9,32.62-5.44,4.73,1.18,4.46,1.93,8.16,2.72,18.4,3.91,33.84-12.67,35.34-10.88,1.64,1.95-13.38,25.39-38.06,29.91-3.6.66-13.88,2.4-24.47-2.72C584.9,800.73,575.45,794.51,576.56,789.68Z"/><path class="cls-3" d="M731.53,659.18a103.81,103.81,0,0,0-5.44,10.87,106.41,106.41,0,0,0-8.16,32.63"/><path class="cls-3" d="M720.65,680.93c-7.14-2.27-10.27-19.7-5.43-32.63,2.62-7,5.36-6.73,8.15-13.59,6.9-17-4.08-32.91,0-35.35,3.25-1.94,13.31,6.34,19,16.32,10.94,19,3.28,39.36,2.72,40.78C740.16,669,728.15,683.3,720.65,680.93Z"/><ellipse class="cls-3" cx="704.34" cy="704.03" rx="5.44" ry="9.52"/><ellipse class="cls-3" cx="794.06" cy="603.44" rx="10.87" ry="6.8" transform="translate(-201.89 550.87) rotate(-34.21)"/></g><g id="Top_Logo" data-name="Top Logo"><path class="cls-3" d="M554.81,207.86c-.93,2.74.16,9.41-2.72,13.6-3.19,4.64-5.16,5.55-13.59,13.59l-13.6,13.59-8.15,8.16c-1.82,1.81-3.63,3.63-5.44,5.44"/><path class="cls-3" d="M651.32,231a310.86,310.86,0,0,0-29.9-21.75,306.67,306.67,0,0,0-76.13-35.34c-57.16-17-105.16-11.15-127.78-8.16-14,1.86-34.39,4.53-59.81,13.6-35.09,12.52-58.64,29.56-72.05,39.42a315.66,315.66,0,0,0-57.09,54.37,274.3,274.3,0,0,0-29.91,43.5c-5.49,10-28.79,54-32.62,116.91a290.5,290.5,0,0,0,0,35.34"/><path class="cls-3" d="M166,436.24a97.09,97.09,0,0,0-10.88,35.34c-2.23,21.52,3.68,37.86,10.88,57.1a245.33,245.33,0,0,0,32.62,59.81"/><path class="cls-3" d="M166,439a101.88,101.88,0,0,1,19,32.62c6.46,18.48,5,32.6,5.44,51.66a328.68,328.68,0,0,0,8.15,65.25"/><path class="cls-3" d="M168.75,395.46a134.74,134.74,0,0,0-32.63,46.22"/><path class="cls-3" d="M149.72,419.93c-10.88-2.72-20.45,2.8-27.19,10.87-9.65,11.53-13.32,23-16.31,32.63-2.38,7.66-5,16.07-5.44,29.9"/><path class="cls-3" d="M149.72,417.21a23.78,23.78,0,0,1,5.43,13.59c.3,6.22-2.27,10.74-5.43,16.31-.87,1.53-4.57,7.86-13.6,16.32-5.17,4.84-8.32,6.85-13.59,10.87a220.12,220.12,0,0,0-21.75,19"/><path class="cls-3" d="M312.84,240.49a231.65,231.65,0,0,1,21.75-21.75c4.82-4.23,3.74-2.92,24.47-19,14.12-11,20.93-16.48,32.62-24.47,3.44-2.35,6.3-4.23,8.16-5.44"/><path class="cls-4" d="M350.9,205.14a164.25,164.25,0,0,0-66.21,47.72A165.51,165.51,0,0,0,253,311.18"/><path class="cls-5" d="M350.83,205.14a54.38,54.38,0,0,1-2.51,19.54c-3.8,11.62-10.77,18.53-17.55,25.11-3.25,3.14-6.35,5.72-22.57,16.74C291,278.21,289,279,283.12,283.27A173.6,173.6,0,0,0,253,311.18"/><path class="cls-4" d="M462.37,180.68a303.39,303.39,0,0,1,46.22,2.71c14.43,2,34.05,4.74,57.09,13.6a212.08,212.08,0,0,1,59.82,35.34"/><path class="cls-4" d="M533.06,169.8c-5.2-5.17-16.95-16.22-24.47-21.75a169,169,0,0,0-27.19-16.31"/><path class="cls-4" d="M369.93,80.08a153.17,153.17,0,0,1,29.91,0A155.17,155.17,0,0,1,443.34,91c12.27,5,28.35,11.61,43.5,27.18a104.6,104.6,0,0,1,19,27.19"/><path class="cls-4" d="M369.93,80.08a103.35,103.35,0,0,1,21.75,13.6C399.33,99.91,403.06,104.8,408,110a151.49,151.49,0,0,0,32.62,24.47c8.83,4.95,30.55,15.28,65.25,13.59"/><path class="cls-4" d="M220.4,281.27c-8.15,0-19.37,6.08-27.18,10.87A140.6,140.6,0,0,0,166,313.89"/><path class="cls-4" d="M187.78,294.86a113.58,113.58,0,0,0-21.75,0c-17.14,2.25-28.66,11.06-35.35,16.32a92,92,0,0,0-27.18,35.34"/><path class="cls-4" d="M187.78,297.58a28,28,0,0,1,0,16.31c-1.48,4.49-5.71,12.8-27.19,21.75-11.56,4.82-30.86,11-57.09,10.88"/><path class="cls-4" d="M304.68,205.14c-7.41,2.4-13.88,4.16-19,5.44-11.11,2.76-19.83,4.22-27.18,5.44-7.5,1.24-14,2.11-19,2.72"/><path class="cls-4" d="M269.34,213.3c-4.52-4.24-9-9.91-19-13.59-9-3.31-23-6-54.38,2.72a263,263,0,0,0-68,29.9"/><path class="cls-4" d="M272.06,213.3a153.71,153.71,0,0,1-21.75,16.31c-7.95,4.93-13.8,8.56-21.75,10.88-9.18,2.67-18,1.82-35.34,0-15.55-1.64-20.71-3.22-38.07-5.44-11.66-1.49-21.17-2.29-27.18-2.72"/><ellipse class="cls-6" cx="535.78" cy="157.57" rx="6.8" ry="10.87" transform="matrix(0.87, -0.5, 0.5, 0.87, -7, 289)"/><ellipse class="cls-7" cx="364.09" cy="219.1" rx="11.14" ry="16.09" transform="translate(-27.92 55.1) rotate(-8.34)"/><ellipse class="cls-8" cx="273.38" cy="202.04" rx="8.58" ry="12.38" transform="matrix(0.83, -0.56, 0.56, 0.83, -66.22, 187.03)"/><path class="cls-3" d="M193.22,327.49q-1.25,9.86-2.14,20.24a536,536,0,0,0-1.94,54.52"/><path class="cls-3" d="M189.14,366.91c-9.23,2.64-10.36,23.21-10.88,32.62a103.8,103.8,0,0,0,8.16,46.22c11,25,29.74,40.92,29.9,40.78a38.66,38.66,0,0,1-8.15-10.87c-6.16-12.58-1.47-23,2.72-48.94,5.15-31.9,1.87-39.86,0-43.5C206.16,374,196.24,364.88,189.14,366.91Z"/><path class="cls-3" d="M592.87,197a126.9,126.9,0,0,0-27.19,5.44c-6.61,2.09-14.91,4.79-24.46,10.87a89,89,0,0,0-19,16.31"/><path class="cls-3" d="M554.81,205.14a23.63,23.63,0,0,0-10.88-5.43,24.52,24.52,0,0,0-16.31,2.72c-10.66,5.62-14.16,17.26-16.31,24.46a63.93,63.93,0,0,0,0,35.35"/></g></g></svg>

